<svg xmlns="http://www.w3.org/2000/svg" viewBox="0 0 34.49 34.49"><defs><style>.cls-1{fill:#fff;}</style></defs><g id="Layer_2" data-name="Layer 2"><g id="Livello_1" data-name="Livello 1"><path class="cls-1" d="M24.62,11.67a2.94,2.94,0,0,0-.71-1.09,3.07,3.07,0,0,0-1.09-.71,5.15,5.15,0,0,0-1.75-.32c-1-.05-1.3-.06-3.82-.06s-2.83,0-3.83.06a5.15,5.15,0,0,0-1.75.32,3.15,3.15,0,0,0-1.8,1.8,5.15,5.15,0,0,0-.32,1.75c-.05,1-.06,1.3-.06,3.83s0,2.82.06,3.82a5.15,5.15,0,0,0,.32,1.75,3.07,3.07,0,0,0,.71,1.09,2.94,2.94,0,0,0,1.09.71,5.15,5.15,0,0,0,1.75.32c1,0,1.3.06,3.83.06s2.82,0,3.82-.06a5.15,5.15,0,0,0,1.75-.32,3.15,3.15,0,0,0,1.8-1.8,5.15,5.15,0,0,0,.32-1.75c0-1,.06-1.3.06-3.82s0-2.83-.06-3.83A5.15,5.15,0,0,0,24.62,11.67ZM17.25,22.1a4.86,4.86,0,1,1,4.85-4.85A4.85,4.85,0,0,1,17.25,22.1Zm5-8.77a1.14,1.14,0,1,1,1.14-1.13A1.14,1.14,0,0,1,22.29,13.33Z"/><circle class="cls-1" cx="17.25" cy="17.25" r="3.15"/><path class="cls-1" d="M28.33,0H6.16A6.16,6.16,0,0,0,0,6.16V28.33a6.16,6.16,0,0,0,6.16,6.16H28.33a6.16,6.16,0,0,0,6.16-6.16V6.16A6.16,6.16,0,0,0,28.33,0ZM26.64,21.14a6.65,6.65,0,0,1-.44,2.3,4.51,4.51,0,0,1-1.09,1.67,4.67,4.67,0,0,1-1.67,1.1,6.92,6.92,0,0,1-2.3.43c-1,.05-1.33.06-3.89.06s-2.89,0-3.9-.06a6.92,6.92,0,0,1-2.3-.43,4.67,4.67,0,0,1-1.67-1.1,4.51,4.51,0,0,1-1.09-1.67,6.65,6.65,0,0,1-.44-2.3c0-1-.06-1.33-.06-3.89s0-2.89.06-3.9a6.65,6.65,0,0,1,.44-2.3,4.85,4.85,0,0,1,2.76-2.76,6.65,6.65,0,0,1,2.3-.44c1,0,1.33-.06,3.9-.06s2.89,0,3.89.06a6.65,6.65,0,0,1,2.3.44,4.85,4.85,0,0,1,2.76,2.76,6.65,6.65,0,0,1,.44,2.3c.05,1,.06,1.33.06,3.9S26.69,20.14,26.64,21.14Z"/></g></g></svg>