<svg xmlns="http://www.w3.org/2000/svg" viewBox="0 0 34.49 34.49"><defs><style>.cls-1{fill:#fff;}</style></defs><g id="Layer_2" data-name="Layer 2"><g id="Livello_1" data-name="Livello 1"><path class="cls-1" d="M28.33,0H6.16A6.16,6.16,0,0,0,0,6.16V28.33a6.16,6.16,0,0,0,6.16,6.16H28.33a6.16,6.16,0,0,0,6.16-6.16V6.16A6.16,6.16,0,0,0,28.33,0ZM13,24.93H9.43V13.4H13Zm-1.8-13A2.13,2.13,0,1,1,13.3,9.76,2.12,2.12,0,0,1,11.19,11.89Zm15.18,13H22.82V18.88c0-1.66-.63-2.59-1.94-2.59s-2.18,1-2.18,2.59v6.05H15.28V13.4H18.7V15a4,4,0,0,1,3.48-1.9c2.44,0,4.19,1.49,4.19,4.58Z"/></g></g></svg>