<svg xmlns="http://www.w3.org/2000/svg" xmlns:xlink="http://www.w3.org/1999/xlink" viewBox="0 0 134.04 42.89"><defs><style>.cls-1{fill:url(#Sfumatura_senza_nome_5);}</style><linearGradient id="Sfumatura_senza_nome_5" y1="21.44" x2="134.04" y2="21.44" gradientUnits="userSpaceOnUse"><stop offset="0" stop-color="#f5e74f"/><stop offset="0" stop-color="#f3e64f"/><stop offset="0.09" stop-color="#bed353"/><stop offset="0.18" stop-color="#94c456"/><stop offset="0.25" stop-color="#76b958"/><stop offset="0.32" stop-color="#64b25a"/><stop offset="0.36" stop-color="#5db05a"/><stop offset="1" stop-color="#315ca4"/></linearGradient></defs><g id="Layer_2" data-name="Layer 2"><g id="Livello_1" data-name="Livello 1"><path class="cls-1" d="M46.71,12.4A2.63,2.63,0,0,0,44.07,15V25.74a8.4,8.4,0,0,1-8.41,8.44,8.26,8.26,0,0,1-8.09-8.25V12.4h-8.7V25.93A17,17,0,0,0,44.12,40.72a2.63,2.63,0,0,0,2.59,2.17h7.93l.41-12.14-5.29,1.84a.3.3,0,0,1-.27-.05.39.39,0,0,1-.15-.26L46.76,12.4Zm16.73,2.16a2.62,2.62,0,0,0-2.59-2.16H55.53l0,12,6.89-1.12a.33.33,0,0,1,.31.13.36.36,0,0,1,.06.34L55.5,42.89h5.35a2.64,2.64,0,0,0,2.64-2.64V29.54a8.39,8.39,0,0,1,8.41-8.43A8.24,8.24,0,0,1,80,29.35V42.89H88.7V29.35A17,17,0,0,0,63.44,14.56m57.05-.69V12.4h-8.71V27.64h0V42.89h8.71V27.64h0a6.54,6.54,0,0,1,9.5-5.82l4-7.72a15.29,15.29,0,0,0-13.55-.23M0,0V25.64A17.14,17.14,0,0,0,16.54,42.88a16.78,16.78,0,0,0,8.77-2.2,18.2,18.2,0,0,1-5.82-6.9,8.11,8.11,0,0,1-2.52.4,8.43,8.43,0,0,1-8.26-8.44V21.1h9V12.4H8.71V0ZM101.77,0V13.87a15.26,15.26,0,0,0-17.11,2.79,18.05,18.05,0,0,1,4.65,8.23,6.54,6.54,0,1,1,.56,6.48V41.91a15.22,15.22,0,0,0,11.9-.49v1.47h8.71V27.64h0V0Z"/></g></g></svg>